<?xml version="1.0" encoding="utf-8"?>
<!-- Generator: Adobe Illustrator 24.1.0, SVG Export Plug-In . SVG Version: 6.00 Build 0)  -->
<svg version="1.1" xmlns="http://www.w3.org/2000/svg" xmlns:xlink="http://www.w3.org/1999/xlink" x="0px" y="0px"
	 viewBox="0 0 100 100" style="enable-background:new 0 0 100 100;" xml:space="preserve">
<style type="text/css">
	.st0{fill:#FFFFFF;}
</style>
<g id="レイヤー_1">
</g>
<g id="_x31_0">
	<g>
		<path class="st0" d="M48.31,50.66c-0.1-0.02-0.21,0.02-0.27,0.11c-0.09,0.05-0.14,0.15-0.14,0.24l-1.09,2l0.1,0.11l0.03,0.04
			c-0.59,0.14-1.22,0.42-1.82,0.83c-0.13,0.08-0.26,0.16-0.39,0.25l0.2-1.15l0.04-0.19h0l0-0.02h-2.61l-0.75-0.01
			c0.31-1,0.49-2.12,0.49-3.32c0-1.7-0.37-3.25-0.97-4.49c-0.07-0.16-0.14-0.33-0.22-0.48h0.32l0.9-2.64h1.08
			c1.81,0,3.42-1.16,4-2.87l2.86-8.46h1.76c0.4,0,0.72-0.32,0.72-0.72v-1.67c0-0.4-0.32-0.72-0.72-0.72h-6.85l-1.87-3.68
			c1.16-0.78,1.87-1.81,1.87-2.95c0-1.08-0.64-2.05-1.7-2.82c-0.21-0.16-0.44-0.32-0.69-0.46h0.14l1.95-5.7
			C44.8,11.45,44.47,11,44.01,11H31.3c-0.46,0-0.78,0.45-0.63,0.89l1.95,5.7h0.1l0.05,0.01c-1.47,0.81-2.41,1.97-2.41,3.27
			c0,1.14,0.71,2.17,1.87,2.95l-1.87,3.68h-6.85c-0.4,0-0.72,0.32-0.72,0.72v1.67c0,0.4,0.32,0.72,0.72,0.72h1.76l2.85,8.46
			c0.58,1.72,2.19,2.87,4,2.87h1.08l0.9,2.64h0.23l0.09,0.01c-0.73,1.3-1.19,3.04-1.19,4.96c0,1.09,0.16,2.1,0.42,3.02
			c0.03,0.1,0.04,0.2,0.06,0.3h-2.85l-0.49,0l0,0h-0.02l1.53,8.96c0.09,0.5,0.29,0.96,0.59,1.34c-0.63,2.57-2.19,4.79-4.31,6.38
			c-2.92,2.17-4.76,5.29-4.76,8.62C23.4,84.39,29.78,89,37.66,89c7.87,0,14.25-4.61,14.25-10.82c0-3.51-2.04-6.78-5.24-8.96
			c-1.99-1.36-3.44-3.37-4.18-5.66c0.48-0.44,0.82-1.03,0.93-1.71l0.29-1.71l0.02-0.1c1.13,0.28,2.74-0.27,4.09-1.5
			c0.75-0.68,1.28-1.47,1.58-2.23c0.04-0.1,0.09-0.19,0.13-0.29l0.12,0.14l2.09-0.91c0.1,0.01,0.2-0.03,0.26-0.12
			c0.1-0.06,0.14-0.16,0.14-0.26l2.45-4.94l-1.15-1.26L48.31,50.66z M35.02,33.17c-0.41,0.7-0.76,1.46-1.02,2.27
			c-0.42,1.32-0.6,2.66-0.54,3.95h-1.34c-0.72,0-1.35-0.45-1.58-1.13l-1.72-5.1h4.12L35.02,33.17z M27.65,77.43
			c0-1.47,0.69-2.85,1.85-3.99c-0.04,2.35,0.71,4.92,2.25,7.18c0.84,1.23,1.85,2.25,2.95,3.08c0.24,0.19,0.49,0.38,0.74,0.55
			C31.04,83.51,27.65,80.69,27.65,77.43z"/>
		<path class="st0" d="M68.95,45.98c0.23,0.01,0.45,0.03,0.66,0.05c0.32,0.03,0.63,0.07,0.93,0.13c0.29,0.06,0.57,0.12,0.85,0.2
			c0.24,0.07,0.47,0.15,0.69,0.24c0.24,0.1,0.46,0.2,0.68,0.32c0.22,0.12,0.43,0.25,0.63,0.39c0.18,0.13,0.35,0.26,0.51,0.41
			c0.09,0.08,0.19,0.16,0.28,0.25c3.35,3.43,2.79,9.22-1.66,17.22l1.49,0.83c4.85-8.73,5.32-15.2,1.39-19.23
			c-5.9-6.05-19.59,0.68-20.4,1.09l0,0v0c-0.01,0-0.02,0.01-0.02,0.01l0.77,1.52C55.83,49.36,63.11,45.73,68.95,45.98z"/>
		<path class="st0" d="M70.15,66.04L70.15,66.04l-0.02-0.01l-0.75,1.23l0.89,0.54l-1.53,2.5c-0.7,0.27-1.41,0.87-1.92,1.71
			c-0.46,0.75-0.67,1.55-0.66,2.25c-0.63,0.3-1.24,0.86-1.7,1.61c-0.46,0.75-0.67,1.55-0.66,2.25c-0.63,0.31-1.24,0.86-1.7,1.61
			c-0.51,0.84-0.72,1.74-0.64,2.49l-1.43,2.35c-0.16,0.27-0.08,0.62,0.19,0.78l1.49,0.91c0.27,0.16,0.62,0.08,0.78-0.19l1.43-2.35
			c0.7-0.27,1.41-0.87,1.92-1.71c0.46-0.75,0.67-1.55,0.66-2.25c0.63-0.3,1.24-0.86,1.7-1.61c0.46-0.75,0.67-1.55,0.66-2.25
			c0.63-0.3,1.24-0.86,1.7-1.61c0.51-0.84,0.72-1.74,0.64-2.49l1.53-2.5l0.86,0.53l0,0l0,0l0.02,0.01l0.75-1.23l-4.21-2.57
			L70.15,66.04z"/>
	</g>
</g>
</svg>
