<?xml version="1.0" encoding="utf-8"?>
<!-- Generator: Adobe Illustrator 24.1.0, SVG Export Plug-In . SVG Version: 6.00 Build 0)  -->
<svg version="1.1" xmlns="http://www.w3.org/2000/svg" xmlns:xlink="http://www.w3.org/1999/xlink" x="0px" y="0px"
	 viewBox="0 0 100 100" style="enable-background:new 0 0 100 100;" xml:space="preserve">
<style type="text/css">
	.st0{fill:#FFFFFF;}
</style>
<g id="レイヤー_1">
</g>
<g id="_x31_0">
	<path class="st0" d="M80.94,31.69c0.01-0.02,0.03-0.04,0.04-0.06c-1.78,0.79-3.66,1.36-5.63,1.72c-0.48,0.08-0.96,0.15-1.45,0.19
		c2.01-1.22,3.62-3,4.68-5.12c0.28-0.54,0.55-1.1,0.75-1.68c-0.01,0.01-0.03,0.01-0.04,0.02c0.01-0.02,0.02-0.04,0.02-0.06
		c-2.4,1.42-5.06,2.46-7.89,3.01c-2.27-2.41-5.5-3.92-9.07-3.92c-6.86,0-12.42,5.56-12.42,12.42c0,0.89,0.1,1.75,0.28,2.58
		c0.01,0.08,0.02,0.17,0.04,0.25c-9.03-0.46-17.16-4.29-23.15-10.27c-0.85-0.85-1.66-1.75-2.42-2.69c0,0,0,0.01-0.01,0.01
		c-0.01-0.01-0.02-0.02-0.03-0.03c-1.07,1.83-1.68,3.97-1.68,6.25c0,3.53,1.49,6.71,3.86,8.98c0.5,0.49,1.03,0.95,1.61,1.36
		c-2.02-0.07-3.91-0.63-5.57-1.55c0,0.05,0,0.1,0,0.16c0,5.01,2.98,9.29,7.25,11.25c0.84,0.4,1.72,0.74,2.65,0.94
		c-1.02,0.27-2.1,0.42-3.21,0.42c-0.65,0-1.28-0.06-1.9-0.16c-0.13-0.03-0.27-0.04-0.41-0.08c0,0.01,0.01,0.01,0.01,0.02
		c-0.01,0-0.03,0-0.04-0.01c1.38,4.32,5.08,7.61,9.62,8.43c0.64,0.12,1.29,0.2,1.95,0.22c-4.25,3.32-9.59,5.29-15.4,5.29
		c-0.84,0-1.66-0.06-2.48-0.14c-0.15-0.02-0.31-0.03-0.46-0.06c0.02,0.01,0.04,0.02,0.06,0.04c-0.03,0-0.06,0-0.08,0
		c5.5,3.53,12.03,5.58,19.04,5.58c11.18,0,19.88-4.54,25.85-11.09c0.05-0.06,0.1-0.11,0.16-0.17c0.64-0.71,1.25-1.45,1.83-2.21
		c0.14-0.18,0.28-0.36,0.41-0.54c0.49-0.67,0.95-1.35,1.39-2.05c0.18-0.28,0.35-0.55,0.52-0.84c0.39-0.66,0.75-1.33,1.1-2
		c0.16-0.31,0.32-0.62,0.47-0.93c0.35-0.72,0.66-1.46,0.96-2.2c0.1-0.25,0.2-0.49,0.3-0.74c0.34-0.9,0.64-1.81,0.91-2.72
		c0.02-0.07,0.05-0.15,0.07-0.22c0.92-3.2,1.39-6.46,1.39-9.63c0-0.54-0.01-1.07-0.04-1.61c1.93-1.39,3.64-3.06,5.1-4.94
		c0.38-0.48,0.76-0.96,1.11-1.46C80.98,31.68,80.96,31.68,80.94,31.69z"/>
</g>
</svg>
