<?xml version="1.0" encoding="utf-8"?>
<!-- Generator: Adobe Illustrator 24.1.0, SVG Export Plug-In . SVG Version: 6.00 Build 0)  -->
<svg version="1.1" xmlns="http://www.w3.org/2000/svg" xmlns:xlink="http://www.w3.org/1999/xlink" x="0px" y="0px"
	 viewBox="0 0 100 100" style="enable-background:new 0 0 100 100;" xml:space="preserve">
<style type="text/css">
	.st0{fill:#FFFFFF;}
</style>
<g id="レイヤー_1">
</g>
<g id="_x31_0">
	<g>
		<path class="st0" d="M75.34,24.7h-8.26h-0.01v-2.01c0-1.02-0.84-1.86-1.86-1.86H64.6c-1.04,0-1.86,0.84-1.86,1.86v2.01H52.19
			h-0.01v-2.01c0-1.02-0.84-1.86-1.86-1.86h-0.61c-1.04,0-1.86,0.84-1.86,1.86v2.01H37.3h-0.01v-2.01c0-1.02-0.84-1.86-1.86-1.86
			H34.8c-1.02,0-1.86,0.84-1.86,1.86v2.01h-8.27c-1.27,0-2.31,1.04-2.31,2.32v50.65c0,1.28,1.04,2.32,2.31,2.32h50.67
			c1.28,0,2.32-1.04,2.32-2.32V27.03C77.66,25.74,76.62,24.7,75.34,24.7z M37.29,29.54c0.26,0.18,0.49,0.37,0.7,0.6
			c0.31,0.33,0.58,0.73,0.77,1.15c0.2,0.48,0.31,1.02,0.31,1.56c0,2.19-1.78,3.97-3.97,3.97c-2.19,0-3.97-1.78-3.97-3.97
			c0-0.54,0.12-1.09,0.31-1.56c0.2-0.43,0.46-0.82,0.77-1.15c0.21-0.23,0.44-0.43,0.71-0.61v0.61v1.15v1.02
			c0,1.2,0.97,2.17,2.17,2.17c1.2,0,2.17-0.97,2.17-2.17v-1.02v-1.15v-0.4L37.29,29.54z M29.41,50.83V40.7h9.61v10.13h-9.59
			L29.41,50.83L29.41,50.83z M29.41,61.89V51.76h9.61v10.13h-9.59H29.41z M29.41,72.93V62.81h5.7l3.89,0.01l-5.55,5.85L29.41,72.93z
			 M52.19,29.54c0.26,0.18,0.49,0.37,0.7,0.6c0.31,0.33,0.58,0.73,0.77,1.15c0.2,0.48,0.31,1.02,0.31,1.56
			c0,2.19-1.78,3.97-3.97,3.97c-2.19,0-3.97-1.78-3.97-3.97c0-0.54,0.12-1.09,0.31-1.56c0.2-0.43,0.46-0.82,0.77-1.15
			c0.21-0.23,0.46-0.44,0.72-0.61v0.61v1.15v1.02c0,1.2,0.96,2.17,2.16,2.17c1.2,0,2.17-0.97,2.17-2.17v-1.02v-1.15v-0.4
			L52.19,29.54z M54.52,57.62l-4.04,4.25V51.76h5.7l3.89,0.01L54.52,57.62z M50.47,50.83V40.7h9.61v10.13h-9.59L50.47,50.83
			L50.47,50.83z M50.47,72.94V62.81h9.61v10.13h-9.59H50.47z M49.54,40.71l-5.55,5.85l-4.04,4.25V40.7h5.7L49.54,40.71z
			 M39.94,61.89V51.76h9.61v10.13h-9.59H39.94z M39.94,72.94V62.81h9.61v10.13h-9.59H39.94z M67.08,29.54
			c0.26,0.18,0.49,0.37,0.7,0.6c0.31,0.33,0.58,0.73,0.77,1.15c0.2,0.48,0.31,1.02,0.31,1.56c0,2.19-1.78,3.97-3.97,3.97
			c-2.19,0-3.97-1.78-3.97-3.97c0-0.54,0.12-1.09,0.31-1.56c0.2-0.43,0.46-0.82,0.77-1.15c0.21-0.23,0.46-0.44,0.72-0.61v0.61v1.15
			v1.02c0,1.2,0.97,2.17,2.16,2.17c1.2,0,2.17-0.97,2.17-2.17v-1.02v-1.15v-0.4L67.08,29.54z M61,61.89V51.76h9.61v10.13h-9.59H61z
			 M61,72.94V62.81h9.61v10.13h-9.59H61z M70.61,50.83h-9.59H61V40.7h9.61V50.83z"/>
	</g>
</g>
</svg>
