<?xml version="1.0" encoding="utf-8"?>
<!-- Generator: Adobe Illustrator 24.1.0, SVG Export Plug-In . SVG Version: 6.00 Build 0)  -->
<svg version="1.1" xmlns="http://www.w3.org/2000/svg" xmlns:xlink="http://www.w3.org/1999/xlink" x="0px" y="0px"
	 viewBox="0 0 100 100" style="enable-background:new 0 0 100 100;" xml:space="preserve">
<style type="text/css">
	.st0{fill:#FFFFFF;}
</style>
<g id="レイヤー_1">
</g>
<g id="_x31_0">
	<g>
		<path class="st0" d="M85,25.14l-3.39,0.76l-1.03,0.23L40.2,35.19l-27.19,6.09l0.02,0.01L13,41.3l14.52,10.76l5.52,22.86
			l14.72-8.27l8.9,6.8l1.1,0.84l0,0l0.02,0.01l28.18-47.86C86.34,25.78,85.75,24.97,85,25.14z M56.61,68.33l-11.81-9.02l-3.98-3.05
			L77.46,32.9L58.9,64.43L56.61,68.33z M45.22,63.46L39.8,66.5l-4.26,2.37l3.99-9.78l4.11,3.14L45.22,63.46z M34.44,63.51
			l-2.92-12.05L65.09,37.2L45.96,49.38l-7.73,4.91l0,0.01l-0.02-0.02l-2.07,5.09L34.44,63.51z M22.52,43.31l43.38-9.75L29.96,48.84
			l-4.53-3.36L22.52,43.31z"/>
	</g>
</g>
</svg>
