<?xml version="1.0" encoding="utf-8"?>
<!-- Generator: Adobe Illustrator 24.1.0, SVG Export Plug-In . SVG Version: 6.00 Build 0)  -->
<svg version="1.1" xmlns="http://www.w3.org/2000/svg" xmlns:xlink="http://www.w3.org/1999/xlink" x="0px" y="0px"
	 viewBox="0 0 134 24.23" style="enable-background:new 0 0 134 24.23;" xml:space="preserve">
<style type="text/css">
	.st0{fill:#FFFFFF;}
</style>
<g id="レイヤー_1">
</g>
<g id="レイヤー_2">
	<g>
		<g>
			<path class="st0" d="M17.17,23.82h-6.82l-4.2-10.79l0.17,10.79H0V0.42h6.32L6.15,10.46L9.88,0.42h6.67L11.5,11.71L17.17,23.82z"
				/>
			<path class="st0" d="M22.59,23.82h-6.32V0.42h6.32V23.82z"/>
			<path class="st0" d="M40.52,23.82h-6.83l-3.12-8.33c-0.03-0.14-0.08-0.33-0.16-0.56s-0.17-0.51-0.28-0.83l0.05,1.55v8.18h-6.29
				V0.42h6.47c2.85,0,4.98,0.56,6.39,1.68c1.8,1.43,2.7,3.48,2.7,6.12c0,2.83-1.21,4.78-3.62,5.86L40.52,23.82z M30.2,11.26h0.42
				c0.73,0,1.33-0.28,1.82-0.83c0.48-0.55,0.73-1.26,0.73-2.12c0-1.75-0.91-2.62-2.74-2.62H30.2V11.26z"/>
			<path class="st0" d="M52.59,16.62l-0.36,6.76c-1.4,0.57-2.66,0.85-3.77,0.85c-2.62,0-4.82-0.96-6.61-2.88c-2-2.15-3-5.2-3-9.14
				c0-3.69,0.94-6.65,2.82-8.88C43.54,1.11,46.05,0,49.19,0c1.02,0,2.06,0.19,3.12,0.58v6.68c-0.94-0.94-1.9-1.41-2.89-1.41
				c-1.29,0-2.3,0.55-3.03,1.65c-0.73,1.11-1.09,2.65-1.09,4.61c0,0.95,0.09,1.8,0.27,2.55c0.18,0.75,0.44,1.38,0.78,1.89
				c0.34,0.52,0.75,0.91,1.25,1.18s1.06,0.41,1.7,0.41C50.39,18.14,51.49,17.63,52.59,16.62z"/>
			<path class="st0" d="M69.38,23.82h-6.32v-9.41h-3.02v9.41h-6.32V0.42h6.32V8.7h3.02V0.42h6.32V23.82z"/>
			<path class="st0" d="M86.32,23.82H80v-9.41h-3.02v9.41h-6.32V0.42h6.32V8.7H80V0.42h6.32V23.82z"/>
			<path class="st0" d="M87.6,23.82V0.42h11.74v5.5h-5.42v3.41h4.86v5.29h-4.86v3.58h5.42v5.62H87.6z"/>
			<path class="st0" d="M117.5,23.82h-6.83l-3.12-8.33c-0.03-0.14-0.08-0.33-0.16-0.56s-0.17-0.51-0.28-0.83l0.05,1.55v8.18h-6.29
				V0.42h6.47c2.85,0,4.98,0.56,6.39,1.68c1.8,1.43,2.7,3.48,2.7,6.12c0,2.83-1.21,4.78-3.62,5.86L117.5,23.82z M107.18,11.26h0.42
				c0.73,0,1.33-0.28,1.82-0.83c0.48-0.55,0.73-1.26,0.73-2.12c0-1.75-0.91-2.62-2.74-2.62h-0.23V11.26z"/>
			<path class="st0" d="M134,23.82h-6.83l-3.12-8.33c-0.03-0.14-0.08-0.33-0.16-0.56s-0.17-0.51-0.28-0.83l0.05,1.55v8.18h-6.29
				V0.42h6.47c2.85,0,4.98,0.56,6.39,1.68c1.8,1.43,2.7,3.48,2.7,6.12c0,2.83-1.21,4.78-3.62,5.86L134,23.82z M123.68,11.26h0.42
				c0.73,0,1.33-0.28,1.82-0.83c0.48-0.55,0.73-1.26,0.73-2.12c0-1.75-0.92-2.62-2.74-2.62h-0.23V11.26z"/>
		</g>
	</g>
</g>
</svg>
