<?xml version="1.0" encoding="utf-8"?>
<!-- Generator: Adobe Illustrator 24.1.0, SVG Export Plug-In . SVG Version: 6.00 Build 0)  -->
<svg version="1.1" id="レイヤー_1" xmlns="http://www.w3.org/2000/svg" xmlns:xlink="http://www.w3.org/1999/xlink" x="0px"
	 y="0px" viewBox="0 0 150 150" style="enable-background:new 0 0 150 150;" xml:space="preserve">
<g>
	<path d="M16.3,84.5h-5.8l-3.8-7.3l-1.5,0.9v6.4H0V65.5h5.2v8.3c0.3-0.5,0.8-1.3,1.6-2.4l4-5.8h5.6l-6,8.6L16.3,84.5z"/>
	<path d="M18.9,84.5V65.5h5.2v19.1H18.9z"/>
	<path d="M32.8,77.6v6.9h-5.2V65.5h6.3c5.2,0,7.8,1.9,7.8,5.6c0,2.2-1.1,3.9-3.2,5.1l5.6,8.3h-5.8l-4-6.9H32.8z M32.8,73.7h1
		c1.8,0,2.7-0.8,2.7-2.4c0-1.3-0.9-2-2.7-2h-1V73.7z"/>
	<path d="M53.7,69.4c-1.2,0-2.2,0.5-2.9,1.5c-0.7,1-1,2.4-1,4.2c0,3.7,1.4,5.5,4.2,5.5c0.8,0,1.7-0.1,2.5-0.4s1.6-0.5,2.4-0.8v4.4
		c-1.6,0.7-3.4,1.1-5.4,1.1c-2.9,0-5.1-0.8-6.6-2.5c-1.5-1.7-2.3-4.1-2.3-7.2c0-2,0.4-3.7,1.1-5.2c0.7-1.5,1.8-2.6,3.2-3.5
		c1.4-0.8,3-1.2,4.9-1.2c2.1,0,4,0.4,5.9,1.3l-1.6,4.1c-0.7-0.3-1.4-0.6-2.1-0.8S54.5,69.4,53.7,69.4z"/>
	<path d="M78.9,84.5h-5.2v-7.8h-6v7.8h-5.2V65.5h5.2v7.1h6v-7.1h5.2V84.5z"/>
	<path d="M98.4,84.5h-5.2v-7.8h-6v7.8H82V65.5h5.2v7.1h6v-7.1h5.2V84.5z"/>
	<path d="M112.7,84.5h-11.3V65.5h11.3v4.1h-6.2v3h5.7v4.1h-5.7v3.6h6.2V84.5z"/>
	<path d="M120.7,77.6v6.9h-5.2V65.5h6.3c5.2,0,7.8,1.9,7.8,5.6c0,2.2-1.1,3.9-3.2,5.1l5.6,8.3h-5.8l-4-6.9H120.7z M120.7,73.7h1
		c1.8,0,2.7-0.8,2.7-2.4c0-1.3-0.9-2-2.7-2h-1V73.7z"/>
	<path d="M138.8,77.6v6.9h-5.2V65.5h6.3c5.2,0,7.8,1.9,7.8,5.6c0,2.2-1.1,3.9-3.2,5.1l5.6,8.3h-5.8l-4-6.9H138.8z M138.8,73.7h1
		c1.8,0,2.7-0.8,2.7-2.4c0-1.3-0.9-2-2.7-2h-1V73.7z"/>
</g>
</svg>
