<?xml version="1.0" encoding="utf-8"?>
<!-- Generator: Adobe Illustrator 24.1.0, SVG Export Plug-In . SVG Version: 6.00 Build 0)  -->
<svg version="1.1" id="レイヤー_1" xmlns="http://www.w3.org/2000/svg" xmlns:xlink="http://www.w3.org/1999/xlink" x="0px"
	 y="0px" viewBox="0 0 150 150" style="enable-background:new 0 0 150 150;" xml:space="preserve">
<g>
	<path d="M2.8,77.8l19-3.4l-1.4-6.9L4.9,70.2l-1.5-8l15.4-2.7L18.3,57c0,0-0.6-3-1.7-6.8c4-0.4,8.3-0.9,9.7-0.9
		c0.8,0,1.1,0.2,1.1,0.6c0,0.4-0.4,1-1.3,1.5c0,0.8,0.3,2.4,0.3,2.4l0.8,4.2l14.9-2.6l1.5,8L28.8,66l1.4,7L49,69.6l1.5,8.1L31.9,81
		L35.5,99l-8.3,1.6l-3.7-18.2L4.3,85.8L2.8,77.8z"/>
	<path d="M70.8,56.7c0.7,0.1,1.1,0.4,1.1,0.8c0,0.4-0.4,0.8-1.3,1.2c-0.1,1.9-0.1,7.2-0.1,8.4c0,0.2,0,0.3,0,0.5
		c0,22.4-12.6,30.9-13,30.9c-0.2,0-0.3-0.1-0.4-0.2c-2.7-2.3-8.9-4.7-8.9-4.7c10.5-5.4,13.6-15.8,13.6-24.7c0-0.4,0-0.8,0-1.2
		c0,0,0.1-1.3,0.1-3.1c0-2.5-0.1-5.8-0.3-8.3C64.2,56.4,69.3,56.6,70.8,56.7z M83.8,85.2c6.1-3.7,10.5-11.6,13.2-20.6
		c0,0,3.3,6.4,5.7,8.9c0.1,0.1,0.2,0.2,0.2,0.4c0,0.2-0.1,0.3-0.1,0.4c-4,7.9-9.8,17.4-21.1,22.5c-0.2,0.7-0.3,1.3-0.8,1.3
		c-0.8,0-6.3-5-6.3-6.1c0-0.4,0.5-0.7,0.5-1.2c0.1-4.8,0.3-29.7,0.3-29.7c0-0.2,0-0.5,0-0.9c0-1.2-0.1-3.2-0.3-5.9
		c10.4,0.5,10.6,0.6,10.6,1.3c0,0.5-0.6,1.1-1.6,1.3c-0.1,1.3-0.1,2.5-0.1,2.5L83.8,85.2z"/>
	<path d="M145.2,96.3c0,0.2-0.2,0.5-0.5,0.5c-5.6,0.6-12.4,0.9-17.5,0.9c-6.2,0-18.8-0.1-18.8-13.3c0-4.4,0.5-24.9,0.5-24.9
		c0-0.5,0-1,0-1.4c0-1.4-0.1-3-0.2-5.7c10.7,0.3,10.8,1,10.8,1.3c0,0.3-0.6,0.8-1.6,1c-0.1,1-0.1,1.9-0.1,2.9
		c-0.1,3.4-0.2,7.5-0.3,11.3c7.5-2.5,16.1-6.2,21.8-10.2c0.1,0.1,7.1,7,7.1,8.7c0,0.3-0.2,0.5-0.6,0.5s-1-0.2-1.7-0.5
		c-8.1,4.2-19.1,8.1-26.9,10.6c-0.1,2.5-0.2,4.2-0.2,4.6c0,4.9,1,6.2,8.5,6.2c5.2,0,13.8-0.7,22.4-2.1
		C147.9,86.7,145.6,93.1,145.2,96.3z"/>
</g>
</svg>
